<?xml version="1.0" encoding="UTF-8" standalone="no"?>
<!-- Created with Inkscape (http://www.inkscape.org/) -->

<svg
   width="98.907173mm"
   height="100.29332mm"
   viewBox="0 0 98.907172 100.29332"
   version="1.1"
   id="svg1"
   xml:space="preserve"
   xmlns="http://www.w3.org/2000/svg"
   xmlns:svg="http://www.w3.org/2000/svg"><defs
     id="defs1" /><path
     style="fill:#f6f5f4;fill-opacity:1"
     d="m 52.613605,100.21759 c -1.238358,-0.0953 -3.341755,-0.464379 -4.608277,-0.808589 -4.318601,-1.17366 -8.198421,-3.4533 -11.317224,-6.64959 l -0.854374,-0.8756 -0.577794,0.12112 c -2.195635,0.46024 -5.728903,0.55703 -8.068563,0.22102 C 21.57349,91.419721 16.599791,88.957821 12.698179,85.054036 8.8635951,81.217317 6.3134351,76.18808 5.4940311,70.846543 4.9492851,67.29545 5.2274221,63.434106 6.2769861,59.976871 l 0.225757,-0.743639 -0.334007,-0.364315 C 5.0246961,57.621067 3.5868871,55.482836 2.6857851,53.689266 0.87114507,50.077369 -2.7893303e-4,46.33442 6.6972918e-8,42.153258 4.0006697e-4,36.170078 2.2014501,30.303723 6.1898731,25.655675 c 2.554968,-2.977519 5.9725849,-5.412718 9.6196689,-6.854428 1.270582,-0.502267 2.811302,-0.991712 3.698915,-1.175046 0.398172,-0.08224 0.55996,-0.157296 0.61276,-0.284266 0.03946,-0.09489 0.211099,-0.556044 0.381425,-1.024794 0.838194,-2.306762 2.395699,-5.007184 4.08176,-7.0770055 0.689998,-0.847047 2.16279,-2.334037 3.156947,-3.187382 8.207813,-7.04525522 20.199164,-8.0427016 29.488611,-2.452877 1.740836,1.047529 3.100338,2.10851 4.711311,3.676796 l 1.13177,1.10178 0.871069,-0.140549 c 2.303273,-0.371639 5.395223,-0.473569 7.26311,-0.239438 2.81583,0.352951 5.406147,1.099402 7.86598,2.2667365 2.839832,1.347667 4.875155,2.77443 7.052756,4.943986 2.3204,2.311828 4.115816,4.909165 5.390576,7.798288 2.39988,5.439075 2.79888,11.441876 1.14151,17.173279 l -0.24646,0.852272 0.34951,0.411411 c 2.30878,2.717657 4.05468,5.877681 5.02297,9.091421 2.320768,7.702608 1.01532,15.672794 -3.64226,22.23706 -3.35655,4.73064 -8.239899,8.102609 -13.990016,9.660148 l -1.33379,0.361285 -0.400092,1.06599 c -1.854203,4.940267 -5.285685,9.268889 -9.639659,12.159879 -4.751919,3.15522 -10.457189,4.636669 -16.16464,4.197369 z m 3.636242,-6.558649 c 5.841043,-0.51561 11.034827,-3.65236 14.256028,-8.609839 1.568565,-2.414045 2.583443,-5.334743 2.871302,-8.263267 0.068,-0.691839 0.08893,-4.563244 0.07115,-13.162515 l -0.0252,-12.182402 -4.249658,-2.455368 c -2.337312,-1.350453 -4.263972,-2.455369 -4.281467,-2.455369 -0.01749,0 -0.04194,6.529469 -0.05432,14.50993 l -0.02251,14.50993 -0.189966,0.411604 c -0.252634,0.547391 -0.643574,1.029512 -1.075746,1.326653 -0.278209,0.191283 -16.797848,9.770975 -20.113872,11.663978 l -0.754603,0.430775 0.498921,0.39674 c 1.361981,1.08303 3.53987,2.28309 5.186417,2.85782 2.548405,0.88953 5.31554,1.24802 7.883516,1.02133 z M 32.01164,85.817827 c 0.604462,-0.04802 1.329136,-0.125993 1.610386,-0.173263 1.944563,-0.32683 4.175077,-1.077596 5.752836,-1.936339 1.399314,-0.76162 20.684744,-11.906564 20.817443,-12.030286 0.140136,-0.130657 0.148421,-0.458369 0.127841,-5.056423 l -0.02201,-4.916711 -12.18749,7.043779 c -6.703119,3.874078 -12.398426,7.132167 -12.656238,7.240197 -0.654017,0.274049 -1.64313,0.274273 -2.308575,5.23e-4 -0.39548,-0.162693 -19.054978,-10.873976 -20.528666,-11.784259 -0.255806,-0.158009 -0.491437,-0.258801 -0.523623,-0.223982 -0.120861,0.130745 -0.256191,1.856779 -0.253997,3.239545 0.0032,2.030728 0.268628,3.754629 0.86249,5.602162 2.656244,8.263716 10.702726,13.678871 19.3096,12.995057 z m 48.830651,-10.5124 c 3.451876,-1.455817 6.444368,-3.968065 8.509734,-7.144068 1.057837,-1.626677 2.066647,-4.003871 2.506667,-5.906761 0.65911,-2.850358 0.62074,-5.974308 -0.10887,-8.863628 -1.14725,-4.543172 -4.010396,-8.588702 -7.84375,-11.08294 -1.219356,-0.793395 -21.132151,-12.255166 -21.276603,-12.246776 -0.07714,0.0045 -2.046235,1.109952 -4.375763,2.456603 -3.521563,2.035741 -4.209038,2.462949 -4.078488,2.534439 0.08636,0.04729 5.641387,3.247155 12.344506,7.11081 8.32683,4.799556 12.303678,7.137078 12.554278,7.379188 0.201734,0.194899 0.489376,0.60283 0.639204,0.906513 l 0.272415,0.552152 0.02271,12.295848 c 0.01249,6.762716 0.05201,12.295847 0.08781,12.295847 0.03581,0 0.371571,-0.129252 0.746143,-0.287227 z M 40.548626,67.826181 c 2.284115,-1.318439 4.183945,-2.425229 4.221846,-2.459534 0.0379,-0.03431 -5.446469,-3.240909 -12.187489,-7.125787 C 19.02539,50.427564 19.528463,50.748043 19.083331,49.640974 l -0.20561,-0.511363 -0.02271,-12.244866 -0.02272,-12.244867 -0.524121,0.21297 c -4.2899,1.743142 -7.757229,4.968788 -9.7858249,9.103724 -1.240428,2.528393 -1.838824,4.900885 -1.935316,7.673046 -0.149656,4.299571 1.130142,8.433621 3.6744669,11.86939 1.156177,1.561262 2.991088,3.332589 4.471184,4.316247 1.023791,0.680402 21.347394,12.398872 21.511973,12.403677 0.08307,0.0024 2.019858,-1.074313 4.303973,-2.392751 z m 14.386009,-8.307218 5.407212,-3.119159 -0.02185,-6.271744 -0.02185,-6.271745 -5.411927,-3.125189 -5.411927,-3.125188 -0.263866,0.136842 c -0.145127,0.07526 -2.589813,1.47917 -5.432635,3.119793 l -5.168769,2.982952 0.02071,6.305982 0.02071,6.305982 5.326699,3.082122 c 2.929685,1.695167 5.377009,3.085809 5.438496,3.090316 0.06149,0.0045 2.545042,-1.395427 5.519009,-3.110964 z M 34.281173,24.342484 c 0.330767,-0.706043 0.672962,-1.10264 1.281994,-1.485807 0.291746,-0.183549 5.036836,-2.933282 10.544643,-6.110516 5.507808,-3.177235 10.033372,-5.794663 10.05681,-5.816508 0.06703,-0.06247 -0.37885,-0.402106 -1.589642,-1.2108735 -2.303537,-1.538686 -4.774776,-2.498839 -7.634727,-2.966326 -1.209394,-0.197688 -4.276082,-0.196088 -5.508302,0.0029 -2.770489,0.447338 -5.273722,1.402284 -7.469014,2.849316 -1.268691,0.8362605 -1.918568,1.3553555 -2.886554,2.3056615 -2.898743,2.8458 -4.649272,6.143653 -5.438082,10.2449 -0.188486,0.979995 -0.188512,0.981659 -0.216986,13.779913 -0.02294,10.30934 -0.0073,12.819007 0.08044,12.898518 0.0599,0.05429 1.988176,1.17957 4.285049,2.500613 l 4.176133,2.401895 0.04261,-14.448141 0.04261,-14.448141 z m 16.600192,7.140751 c 6.632349,-3.834285 12.28893,-7.068395 12.57018,-7.186913 0.767558,-0.323445 1.685856,-0.306118 2.432325,0.04589 0.420788,0.198431 19.373306,11.093069 20.675847,11.885274 l 0.267284,0.162562 0.115913,-0.874532 c 0.157018,-1.184662 0.134124,-3.603354 -0.04608,-4.867649 -0.41258,-2.894717 -1.390882,-5.460214 -3.00228,-7.873178 -5.260959,-7.877945 -15.440642,-10.604376 -23.937329,-6.41115 -0.46875,0.231334 -5.454541,3.078769 -11.079536,6.327632 l -10.227263,5.907026 -0.022,4.969695 c -0.01764,3.985157 -5.91e-4,4.961481 0.08606,4.928231 0.05943,-0.02281 5.534523,-3.178607 12.166873,-7.012892 z"
     id="path18" /></svg>
